<mxfile host="app.diagrams.net" modified="2023-11-11T13:09:06.236Z" agent="Mozilla/5.0 (Windows NT 10.0; Win64; x64) AppleWebKit/537.36 (KHTML, like Gecko) Chrome/119.0.0.0 Safari/537.36" etag="Klh8zx3T7Jf-keDfIDQr" version="22.1.0" type="device">
  <diagram name="Page-1" id="e7e014a7-5840-1c2e-5031-d8a46d1fe8dd">
    <mxGraphModel dx="1500" dy="774" grid="1" gridSize="10" guides="1" tooltips="1" connect="1" arrows="1" fold="1" page="1" pageScale="1" pageWidth="2336" pageHeight="1654" background="none" math="0" shadow="0">
      <root>
        <mxCell id="0" />
        <mxCell id="1" parent="0" />
        <mxCell id="2" value="User" style="swimlane;whiteSpace=wrap" parent="1" vertex="1">
          <mxGeometry x="230" y="10" width="214.5" height="760" as="geometry" />
        </mxCell>
        <mxCell id="5" value="" style="ellipse;shape=startState;fillColor=#000000;strokeColor=#ff0000;" parent="2" vertex="1">
          <mxGeometry x="92.25" y="22" width="30" height="30" as="geometry" />
        </mxCell>
        <mxCell id="6" value="" style="edgeStyle=elbowEdgeStyle;elbow=horizontal;verticalAlign=bottom;endArrow=open;endSize=8;strokeColor=#FF0000;endFill=1;rounded=0;exitX=0.51;exitY=0.821;exitDx=0;exitDy=0;exitPerimeter=0;" parent="2" source="5" target="7" edge="1">
          <mxGeometry x="100" y="40" as="geometry">
            <mxPoint x="115" y="110" as="targetPoint" />
          </mxGeometry>
        </mxCell>
        <mxCell id="Zva-b7pixv7eeOlf-1l2-47" value="" style="edgeStyle=orthogonalEdgeStyle;rounded=0;orthogonalLoop=1;jettySize=auto;html=1;" parent="2" source="7" target="8" edge="1">
          <mxGeometry relative="1" as="geometry" />
        </mxCell>
        <mxCell id="7" value="opening application" style="" parent="2" vertex="1">
          <mxGeometry x="52.25" y="62" width="110" height="50" as="geometry" />
        </mxCell>
        <mxCell id="Zva-b7pixv7eeOlf-1l2-46" style="edgeStyle=orthogonalEdgeStyle;rounded=0;orthogonalLoop=1;jettySize=auto;html=1;exitX=0.5;exitY=1;exitDx=0;exitDy=0;entryX=0.5;entryY=0;entryDx=0;entryDy=0;" parent="2" source="8" target="Zva-b7pixv7eeOlf-1l2-43" edge="1">
          <mxGeometry relative="1" as="geometry" />
        </mxCell>
        <mxCell id="8" value="entering the &#xa;master-password" style="" parent="2" vertex="1">
          <mxGeometry x="52.25" y="132" width="110" height="50" as="geometry" />
        </mxCell>
        <mxCell id="Zva-b7pixv7eeOlf-1l2-43" value="user know master-password" style="rhombus;whiteSpace=wrap;html=1;fontColor=#000000;fillColor=#ffffc0;strokeColor=#ff0000;" parent="2" vertex="1">
          <mxGeometry x="39.75" y="280" width="135" height="78" as="geometry" />
        </mxCell>
        <mxCell id="3" value="App" style="swimlane;whiteSpace=wrap" parent="1" vertex="1">
          <mxGeometry x="444.5" y="10" width="295.5" height="760" as="geometry" />
        </mxCell>
        <mxCell id="Zva-b7pixv7eeOlf-1l2-57" value="" style="edgeStyle=orthogonalEdgeStyle;html=1;verticalAlign=bottom;endArrow=open;endSize=8;strokeColor=#ff0000;rounded=0;exitX=0.632;exitY=0.458;exitDx=0;exitDy=0;exitPerimeter=0;entryX=0;entryY=0.5;entryDx=0;entryDy=0;" parent="3" source="Zva-b7pixv7eeOlf-1l2-51" target="Zva-b7pixv7eeOlf-1l2-61" edge="1">
          <mxGeometry relative="1" as="geometry">
            <mxPoint x="72.75" y="189" as="targetPoint" />
            <Array as="points">
              <mxPoint x="25.25" y="330" />
              <mxPoint x="25.25" y="325" />
            </Array>
          </mxGeometry>
        </mxCell>
        <mxCell id="Zva-b7pixv7eeOlf-1l2-51" value="" style="shape=line;html=1;strokeWidth=6;strokeColor=#ff0000;rotation=-90;" parent="3" vertex="1">
          <mxGeometry x="-36.8" y="307.85" width="125.57" height="10" as="geometry" />
        </mxCell>
        <mxCell id="Zva-b7pixv7eeOlf-1l2-61" value="provision of your passwords/cards" style="html=1;whiteSpace=wrap;" parent="3" vertex="1">
          <mxGeometry x="100" y="290" width="110" height="50" as="geometry" />
        </mxCell>
        <mxCell id="Zva-b7pixv7eeOlf-1l2-69" value="data encryption" style="html=1;whiteSpace=wrap;" parent="3" vertex="1">
          <mxGeometry x="100" y="490" width="110" height="50" as="geometry" />
        </mxCell>
        <mxCell id="9so-e_sgzBQl9QUlrtG9-39" value="" style="edgeStyle=orthogonalEdgeStyle;rounded=0;orthogonalLoop=1;jettySize=auto;html=1;" edge="1" parent="3" source="KfNiherDewmS_w6AtVgG-39" target="Zva-b7pixv7eeOlf-1l2-69">
          <mxGeometry relative="1" as="geometry" />
        </mxCell>
        <mxCell id="KfNiherDewmS_w6AtVgG-39" value="password strength check" style="rounded=0;whiteSpace=wrap;html=1;" parent="3" vertex="1">
          <mxGeometry x="107.31" y="420" width="95.38" height="38" as="geometry" />
        </mxCell>
        <mxCell id="9so-e_sgzBQl9QUlrtG9-38" value="" style="edgeStyle=orthogonalEdgeStyle;rounded=0;orthogonalLoop=1;jettySize=auto;html=1;" edge="1" parent="3" source="KfNiherDewmS_w6AtVgG-41" target="KfNiherDewmS_w6AtVgG-39">
          <mxGeometry relative="1" as="geometry" />
        </mxCell>
        <mxCell id="KfNiherDewmS_w6AtVgG-41" value="adding a new password/card" style="rounded=0;whiteSpace=wrap;html=1;" parent="3" vertex="1">
          <mxGeometry x="109.75" y="350" width="90.25" height="40" as="geometry" />
        </mxCell>
        <mxCell id="Zva-b7pixv7eeOlf-1l2-52" value="" style="edgeStyle=orthogonalEdgeStyle;html=1;verticalAlign=bottom;endArrow=open;endSize=8;strokeColor=#ff0000;rounded=0;exitX=0.344;exitY=0.683;exitDx=0;exitDy=0;exitPerimeter=0;entryX=-0.015;entryY=0.543;entryDx=0;entryDy=0;entryPerimeter=0;" parent="3" source="Zva-b7pixv7eeOlf-1l2-51" target="KfNiherDewmS_w6AtVgG-41" edge="1">
          <mxGeometry relative="1" as="geometry">
            <mxPoint x="115.5" y="376" as="targetPoint" />
            <mxPoint x="52.75" y="270" as="sourcePoint" />
            <Array as="points">
              <mxPoint x="28" y="371" />
              <mxPoint x="26" y="371" />
              <mxPoint x="26" y="340" />
              <mxPoint x="24" y="340" />
              <mxPoint x="24" y="371" />
              <mxPoint x="108" y="371" />
            </Array>
          </mxGeometry>
        </mxCell>
        <mxCell id="9so-e_sgzBQl9QUlrtG9-44" value="" style="edgeStyle=orthogonalEdgeStyle;html=1;verticalAlign=bottom;endArrow=open;endSize=8;strokeColor=#ff0000;rounded=0;entryX=0;entryY=0.5;entryDx=0;entryDy=0;" edge="1" parent="3" target="9so-e_sgzBQl9QUlrtG9-45">
          <mxGeometry relative="1" as="geometry">
            <mxPoint x="95.5" y="251" as="targetPoint" />
            <Array as="points">
              <mxPoint x="24" y="255" />
            </Array>
            <mxPoint x="24.31" y="250.97000000000003" as="sourcePoint" />
          </mxGeometry>
        </mxCell>
        <mxCell id="9so-e_sgzBQl9QUlrtG9-45" value="checking passwords for leakage" style="rounded=0;whiteSpace=wrap;html=1;" vertex="1" parent="3">
          <mxGeometry x="99.5" y="230" width="110.5" height="50" as="geometry" />
        </mxCell>
        <mxCell id="4" value="Database" style="swimlane;whiteSpace=wrap" parent="1" vertex="1">
          <mxGeometry x="740" y="10" width="200" height="760" as="geometry" />
        </mxCell>
        <mxCell id="9so-e_sgzBQl9QUlrtG9-55" style="edgeStyle=orthogonalEdgeStyle;rounded=0;orthogonalLoop=1;jettySize=auto;html=1;entryX=0.149;entryY=0.287;entryDx=0;entryDy=0;entryPerimeter=0;" edge="1" parent="4" source="Zva-b7pixv7eeOlf-1l2-63" target="9so-e_sgzBQl9QUlrtG9-49">
          <mxGeometry relative="1" as="geometry">
            <Array as="points">
              <mxPoint x="85" y="620" />
              <mxPoint x="57" y="620" />
            </Array>
          </mxGeometry>
        </mxCell>
        <mxCell id="Zva-b7pixv7eeOlf-1l2-63" value="adding a new password/card to the database" style="html=1;whiteSpace=wrap;" parent="4" vertex="1">
          <mxGeometry x="30" y="490" width="110" height="50" as="geometry" />
        </mxCell>
        <mxCell id="9so-e_sgzBQl9QUlrtG9-53" style="edgeStyle=orthogonalEdgeStyle;rounded=0;orthogonalLoop=1;jettySize=auto;html=1;entryX=0.827;entryY=0.428;entryDx=0;entryDy=0;entryPerimeter=0;" edge="1" parent="4" source="9so-e_sgzBQl9QUlrtG9-46" target="9so-e_sgzBQl9QUlrtG9-49">
          <mxGeometry relative="1" as="geometry">
            <mxPoint x="169.99999999999977" y="500" as="targetPoint" />
            <Array as="points">
              <mxPoint x="180" y="255" />
              <mxPoint x="180" y="640" />
              <mxPoint x="111" y="640" />
            </Array>
          </mxGeometry>
        </mxCell>
        <mxCell id="9so-e_sgzBQl9QUlrtG9-46" value="checking the password for leakage in the database" style="rounded=0;whiteSpace=wrap;html=1;" vertex="1" parent="4">
          <mxGeometry x="17.5" y="230" width="135" height="50" as="geometry" />
        </mxCell>
        <mxCell id="38" value="" style="ellipse;shape=endState;fillColor=#000000;strokeColor=#ff0000" parent="4" vertex="1">
          <mxGeometry x="70" y="710" width="30" height="30" as="geometry" />
        </mxCell>
        <mxCell id="9so-e_sgzBQl9QUlrtG9-49" value="" style="shape=line;html=1;strokeWidth=6;strokeColor=#ff0000;" vertex="1" parent="4">
          <mxGeometry x="45" y="660" width="80" height="10" as="geometry" />
        </mxCell>
        <mxCell id="9so-e_sgzBQl9QUlrtG9-50" value="" style="edgeStyle=orthogonalEdgeStyle;html=1;verticalAlign=bottom;endArrow=open;endSize=8;strokeColor=#ff0000;rounded=0;entryX=0.5;entryY=0;entryDx=0;entryDy=0;exitX=0.607;exitY=0.256;exitDx=0;exitDy=0;exitPerimeter=0;" edge="1" source="9so-e_sgzBQl9QUlrtG9-49" parent="4" target="38">
          <mxGeometry relative="1" as="geometry">
            <mxPoint x="80" y="700" as="targetPoint" />
            <Array as="points">
              <mxPoint x="94" y="665" />
              <mxPoint x="85" y="665" />
            </Array>
          </mxGeometry>
        </mxCell>
        <mxCell id="Zva-b7pixv7eeOlf-1l2-44" value="no" style="edgeStyle=orthogonalEdgeStyle;html=1;align=left;verticalAlign=bottom;endArrow=open;endSize=8;strokeColor=#ff0000;rounded=0;exitX=0.5;exitY=1;exitDx=0;exitDy=0;" parent="1" source="Zva-b7pixv7eeOlf-1l2-43" target="38" edge="1">
          <mxGeometry x="-0.9284" y="-17" relative="1" as="geometry">
            <mxPoint x="500" y="610" as="targetPoint" />
            <mxPoint x="300" y="480" as="sourcePoint" />
            <Array as="points">
              <mxPoint x="337" y="735" />
            </Array>
            <mxPoint as="offset" />
          </mxGeometry>
        </mxCell>
        <mxCell id="Zva-b7pixv7eeOlf-1l2-45" value="yes" style="edgeStyle=orthogonalEdgeStyle;html=1;align=left;verticalAlign=top;endArrow=open;endSize=8;strokeColor=#ff0000;rounded=0;exitX=1;exitY=0.5;exitDx=0;exitDy=0;" parent="1" source="Zva-b7pixv7eeOlf-1l2-43" edge="1">
          <mxGeometry x="-1" y="29" relative="1" as="geometry">
            <mxPoint x="470" y="330" as="targetPoint" />
            <mxPoint x="370" y="430" as="sourcePoint" />
            <Array as="points">
              <mxPoint x="470" y="329" />
            </Array>
            <mxPoint x="-5" as="offset" />
          </mxGeometry>
        </mxCell>
        <mxCell id="9so-e_sgzBQl9QUlrtG9-40" style="edgeStyle=orthogonalEdgeStyle;rounded=0;orthogonalLoop=1;jettySize=auto;html=1;entryX=0;entryY=0.5;entryDx=0;entryDy=0;" edge="1" parent="1" source="Zva-b7pixv7eeOlf-1l2-69" target="Zva-b7pixv7eeOlf-1l2-63">
          <mxGeometry relative="1" as="geometry" />
        </mxCell>
        <mxCell id="9so-e_sgzBQl9QUlrtG9-47" value="" style="edgeStyle=orthogonalEdgeStyle;rounded=0;orthogonalLoop=1;jettySize=auto;html=1;" edge="1" parent="1" source="9so-e_sgzBQl9QUlrtG9-45" target="9so-e_sgzBQl9QUlrtG9-46">
          <mxGeometry relative="1" as="geometry" />
        </mxCell>
        <mxCell id="9so-e_sgzBQl9QUlrtG9-52" value="" style="edgeStyle=orthogonalEdgeStyle;rounded=0;orthogonalLoop=1;jettySize=auto;html=1;entryX=0.482;entryY=0.381;entryDx=0;entryDy=0;entryPerimeter=0;" edge="1" parent="1" source="Zva-b7pixv7eeOlf-1l2-61" target="9so-e_sgzBQl9QUlrtG9-49">
          <mxGeometry relative="1" as="geometry">
            <mxPoint x="910" y="670" as="targetPoint" />
            <Array as="points">
              <mxPoint x="900" y="325" />
              <mxPoint x="900" y="640" />
              <mxPoint x="824" y="640" />
              <mxPoint x="824" y="674" />
            </Array>
          </mxGeometry>
        </mxCell>
      </root>
    </mxGraphModel>
  </diagram>
</mxfile>
